<svg id="Capa_1" enable-background="new 0 0 512.001 512.001"  viewBox="0 0 512.001 512.001" xmlns="http://www.w3.org/2000/svg"><g><g><g><path d="m317.057 322.492c-12.134 9.94-31.484 22.06-61.057 31.916v-.001c-29.572-9.855-48.922-21.975-61.056-31.915h-147.691c-5.53 0-9.996 4.483-10.003 10.013-.035 29.08 8.757 74.112 56.122 106.687 77.41 53.24 162.629 50.603 162.629 50.603s85.219 2.637 162.629-50.602c53.229-36.609 57.743-88.949 55.759-116.701z" fill="#64b9fc"/><path d="m345.471 322.49c-1.45 74-93.84 138.13-93.84 138.13l-32.52-12.93c-85.83-34.42-68.49-125.2-68.49-125.2z" fill="#5169cd"/><path d="m329.361 322.49v11.548c0 7.545-1.134 15.021-2.969 22.34-.007.027-.014.055-.021.082-7.34 29.41-36.05 51.36-70.37 51.36-34.46 0-63.26-22.13-70.46-51.73-1.45-5.99-4.44-11.52-8.62-16.04-4.97-5.38-9.42-11.27-13.24-17.56z" fill="#3351c5"/><g><path d="m317.261 317.539c-11.914 32.381-46.701 144.963-237.143 186.961h259.925s128.288-22.538 134.7-183.187c.221-5.55-4.232-10.173-9.787-10.173h-138.513c-4.102 0-7.765 2.55-9.182 6.399z" fill="#fc9744"/><path d="m474.741 321.31c-6.41 160.65-134.7 183.19-134.7 183.19h-88.41s183.28-22.54 189.7-183.19c.22-5.55-4.24-10.17-9.79-10.17h33.42c5.55 0 10 4.62 9.78 10.17z" fill="#fb8627"/></g></g><g><g><g><ellipse cx="194.152" cy="181.747" fill="#f2eff2" rx="57.079" ry="52.858"/><path d="m249.2 167.793c-6.611-22.418-28.742-38.903-55.048-38.903-26.305 0-48.436 16.485-55.048 38.903z" fill="#e1dde1"/></g><g><ellipse cx="317.852" cy="181.747" fill="#f2eff2" rx="57.079" ry="52.858"/><path d="m372.9 167.793c-6.611-22.418-28.742-38.903-55.048-38.903s-48.436 16.485-55.048 38.903z" fill="#e1dde1"/></g></g><g><path d="m147.661 205.09v31.669c0 28.76 11.095 55.114 29.262 74.762 4.181 4.522 7.167 10.052 8.622 16.037 7.194 29.601 35.998 51.733 70.457 51.733 34.316 0 63.026-21.948 70.369-51.363 1.497-5.996 4.522-11.526 8.743-16.04 18.12-19.374 29.229-45.381 29.229-73.938v-32.86z" fill="#f2eff2"/><path d="m364.341 205.09v32.86c0 28.56-11.11 54.57-29.23 73.94-4.22 4.51-7.24 10.04-8.74 16.04-7.34 29.41-36.05 51.36-70.37 51.36-4.9 0-9.69-.45-14.32-1.3 27.77-5.13 49.76-24.85 56.05-50.06 1.5-6 4.52-11.53 8.74-16.04 18.12-19.37 29.23-45.38 29.23-73.94v-32.86z" fill="#e1dde1"/></g><g><circle cx="355.057" cy="205.261" fill="#f69583" r="23.672"/><circle cx="156.948" cy="205.261" fill="#f89f8e" r="23.672"/></g><path d="m338.423 131.822v95.916c0 18.363-6.009 35.318-16.171 49.016-11.104-23.449-36.587-39.843-66.25-39.843s-55.146 16.395-66.25 39.843c-10.161-13.698-16.171-30.652-16.171-49.016v-95.916z" fill="#fdb0a0"/><path d="m173.581 131.823v35.97h123.581c9.421 0 17.058 7.637 17.058 17.058v36.449c0 12.36-2.72 24.08-7.61 34.59 6.58 5.93 11.92 13 15.64 20.86 10.16-13.69 16.17-30.65 16.17-49.01v-95.92z" fill="#f89f8e"/><g><path d="m263.963 307.856h-15.921c-11.079 0-20.061-8.982-20.061-20.061 0-11.079 8.982-20.061 20.061-20.061h15.921c11.079 0 20.061 8.982 20.061 20.061 0 11.08-8.982 20.061-20.061 20.061z" fill="#fdb0a0"/><path d="m284.021 287.8c0 5.54-2.24 10.55-5.88 14.18-3.62 3.63-8.64 5.88-14.18 5.88h-15.92c-.93 0-1.84-.06-2.74-.19 4.44-.6 8.43-2.67 11.44-5.69 3.64-3.63 5.88-8.64 5.88-14.18 0-10.15-7.54-18.55-17.32-19.88.9-.13 1.81-.19 2.74-.19h15.92c11.08 0 20.06 8.99 20.06 20.07z" fill="#f89f8e"/></g><g><path d="m368.933 88.351h-30.632l-7.729-32.073c-.941-3.904-5.378-5.799-8.849-3.779l-22.449 13.064-38.337-55.475c-2.385-3.451-7.485-3.451-9.87 0l-38.337 55.475-22.449-13.064c-3.471-2.02-7.908-.125-8.849 3.779l-7.729 32.073h-30.632c-3.838 0-6.689 3.555-5.855 7.302l10.19 45.773c.95 4.268 4.736 7.303 9.108 7.303h198.976c4.372 0 8.158-3.036 9.108-7.303l10.19-45.773c.834-3.747-2.017-7.302-5.855-7.302z" fill="#fcb44d"/><g fill="#fb9927"><path d="m368.93 88.352h-27.437c3.839 0 6.694 3.551 5.855 7.306l-11.812 53.071h19.954c4.372 0 8.158-3.036 9.108-7.304l10.187-45.767c.839-3.755-2.016-7.306-5.855-7.306z"/><path d="m338.302 88.352h-22.714c-2.771 0-5.181-1.898-5.831-4.591l-5.142-21.299 17.108-9.958c3.467-2.027 7.906-.132 8.854 3.779z"/><path d="m291.405 54.184-14.77 8.594c-2.708 1.575-6.171.802-7.952-1.775l-26.393-38.203 8.782-12.717c2.375-3.443 7.486-3.443 9.861 0z"/></g><g><path d="m251.172 69.703-14.604 19.839c-1.557 2.115-1.557 4.997 0 7.112l14.604 19.839c2.397 3.257 7.264 3.257 9.662 0l14.604-19.839c1.557-2.115 1.557-4.997 0-7.112l-14.604-19.839c-2.398-3.257-7.265-3.257-9.662 0z" fill="#68dbf9"/><path d="m275.435 96.658-14.602 19.837c-2.397 3.257-7.265 3.257-9.662 0l-5.607-7.617 11.625-15.776-11.625-15.776 5.607-7.617c2.397-3.257 7.265-3.257 9.662 0l14.602 19.837c1.557 2.115 1.557 4.997 0 7.112z" fill="#21c1f8"/></g></g></g></g><g><path d="m477.43 308.955c-3.246-3.378-7.792-5.315-12.473-5.315h-113.589c13.292-19.225 20.476-42.016 20.476-65.688v-6.447c8.643-5.547 14.387-15.235 14.387-26.245 0-5.773-1.583-11.18-4.33-15.822.346-2.542.531-5.12.531-7.691 0-12.504-4.192-24.717-11.867-34.861.589-1.197 1.053-2.475 1.355-3.831l10.19-45.773c.895-4.019-.07-8.166-2.646-11.378-2.575-3.212-6.414-5.054-10.53-5.054h-24.725l-6.345-26.33c-1.009-4.188-3.86-7.56-7.821-9.251-3.961-1.692-8.368-1.42-12.091.747l-16.452 9.574-6.629-9.593c-2.354-3.408-7.026-4.262-10.434-1.906-3.407 2.355-4.261 7.026-1.906 10.434l10.574 15.301c2.227 3.221 6.557 4.188 9.942 2.218l20.707-12.05 7.256 30.113c.812 3.369 3.826 5.743 7.292 5.743h28.76l-9.783 43.945c-.188.844-.923 1.433-1.788 1.433h-198.976c-.864 0-1.599-.589-1.787-1.433l-9.783-43.945h28.76c3.465 0 6.479-2.374 7.292-5.743l7.256-30.112 20.707 12.05c3.385 1.969 7.717 1.004 9.942-2.219l37.102-53.687 6.524 9.441c2.354 3.407 7.026 4.261 10.434 1.906s4.261-7.026 1.906-10.434l-7.759-11.228c-2.522-3.647-6.673-5.824-11.107-5.824-4.433 0-8.584 2.177-11.104 5.825l-34.392 49.766-16.452-9.574c-3.724-2.167-8.131-2.438-12.092-.747-3.961 1.692-6.812 5.064-7.821 9.252l-6.344 26.329h-24.725c-4.117 0-7.956 1.842-10.531 5.055-2.576 3.212-3.54 7.359-2.645 11.377l10.19 45.772c.302 1.356.766 2.635 1.354 3.832-7.675 10.144-11.868 22.357-11.868 34.86 0 2.574.186 5.156.532 7.701-2.743 4.639-4.324 10.043-4.324 15.812 0 11.007 5.741 20.693 14.38 26.24v5.26c0 28.967 10.566 56.658 29.791 78.232h-54.66c-4.142 0-7.5 3.358-7.5 7.5s3.358 7.5 7.5 7.5h26.866c-1.887 23.045-.835 86.36 61.458 118.822-10.988 6.801-22.71 13.074-35.142 18.815-25.828-8.405-49.663-20.043-70.851-34.616-43.763-30.099-52.907-71.265-52.872-100.498.002-1.391 1.125-2.522 2.503-2.522h32.644c4.142 0 7.5-3.358 7.5-7.5s-3.358-7.5-7.5-7.5h-32.644c-9.639 0-17.491 7.852-17.503 17.504-.023 19.545 3.641 38.047 10.891 54.992 9.872 23.073 26.184 42.548 48.481 57.884 18 12.38 37.785 22.742 58.992 30.932-21.38 8.386-44.607 15.357-69.611 20.871-4.045.892-6.601 4.895-5.709 8.939.772 3.501 3.874 5.886 7.317 5.886.535 0 1.079-.058 1.623-.177 69.779-15.388 126.462-41.89 168.476-78.768 3.113-2.732 3.421-7.471.689-10.584-2.733-3.113-7.472-3.42-10.584-.689-6.94 6.092-14.32 11.882-22.112 17.381-63.129-27.623-62.859-89.296-60.99-109.172h21.222c4.032 15.886 13.819 30.267 27.637 40.551 14.082 10.479 31.814 16.249 49.931 16.249 6.278 0 12.508-.709 18.561-2.052-3.218 4.334-6.584 8.57-10.102 12.671-2.697 3.144-2.334 7.879.81 10.576 1.415 1.213 3.151 1.807 4.879 1.807 2.113 0 4.213-.888 5.696-2.617 8.643-10.077 16.485-20.882 23.309-32.117.005-.009.009-.018.015-.027 2.269-1.35 4.476-2.796 6.592-4.362 13.976-10.341 23.879-24.875 27.885-40.925 1.01-4.046 2.916-7.844 5.542-11.105h92.877c-.603 9.362-2.967 30.489-12.243 54.647-16.676 43.432-46.548 74.877-88.786 93.462-3.792 1.668-5.513 6.094-3.844 9.885 1.236 2.809 3.985 4.481 6.869 4.481 1.009 0 2.034-.205 3.017-.637 57.34-25.229 84.261-69.293 96.748-101.815 10.296-26.814 12.71-50.014 13.274-60.024h17.854c.85 0 1.403.443 1.657.708.252.262.669.827.636 1.666-2.555 64.022-24.871 113.074-66.327 145.793-31.046 24.503-61.882 30.253-62.19 30.308-4.072.723-6.792 4.607-6.076 8.683.64 3.641 3.805 6.204 7.378 6.204.431 0 .868-.038 1.307-.115 1.385-.243 34.309-6.264 68.269-32.83 19.932-15.592 36.09-35.062 48.026-57.87 14.817-28.312 23.094-61.814 24.601-99.575.189-4.738-1.518-9.234-4.807-12.657zm-320.479-87.525c-8.916 0-16.17-7.254-16.17-16.17s7.254-16.17 16.17-16.17c3.31 0 6.442.984 9.131 2.84v26.66c-2.689 1.855-5.821 2.84-9.131 2.84zm9.131-45.963c-2.924-.894-5.983-1.377-9.131-1.377-4.269 0-8.339.864-12.047 2.424.92-7.425 3.801-14.418 8.489-20.578 1.014.188 2.056.292 3.123.292h9.567v19.239zm15-19.238h149.842v71.51c0 12.233-2.902 24.02-8.471 34.642-14.594-20.357-39.429-32.97-66.45-32.97s-51.856 12.613-66.45 32.969c-5.569-10.622-8.471-22.409-8.471-34.642zm177.531-.293c4.687 6.159 7.568 13.151 8.488 20.575-3.706-1.558-7.774-2.421-12.04-2.421-3.113 0-6.19.496-9.137 1.4v-19.261h9.566c1.066 0 2.109-.105 3.123-.293zm-12.69 35.989c2.68-1.853 5.815-2.835 9.137-2.835 8.916 0 16.17 7.254 16.17 16.17s-7.254 16.17-16.17 16.17c-3.323 0-6.457-.983-9.137-2.835zm-26.828 134.187c-6.607 26.469-33.142 45.68-63.092 45.68-30.125 0-56.691-19.348-63.17-46.004-1.749-7.194-5.346-13.888-10.403-19.357-17.585-19.018-27.269-43.761-27.269-69.67v-.385c.593.034 1.189.055 1.79.055 3.25 0 6.406-.511 9.415-1.463 1.324 16.771 7.259 32.636 17.363 46.256 1.57 2.116 4.133 3.26 6.757 2.996 2.622-.258 4.917-1.873 6.044-4.254 10.228-21.598 33.572-35.553 59.472-35.553s49.244 13.956 59.472 35.553c1.127 2.381 3.422 3.996 6.044 4.254.246.024.491.036.735.036 2.359 0 4.6-1.114 6.022-3.031 10.108-13.626 16.044-29.499 17.365-46.278 3.032.961 6.208 1.485 9.42 1.485.599 0 1.193-.021 1.783-.054v1.576c0 25.618-9.662 50.056-27.207 68.814-5.096 5.449-8.742 12.139-10.541 19.344z"/><path d="m369.968 385.048c2.132-3.551.982-8.158-2.568-10.291-3.552-2.133-8.159-.983-10.291 2.568-27.658 46.053-70.049 76.169-100.741 93.323-33.532 18.741-60.835 26.554-61.107 26.63-3.985 1.122-6.308 5.262-5.188 9.248.93 3.31 3.94 5.473 7.216 5.473.671 0 1.354-.091 2.033-.282 1.167-.328 28.979-8.254 63.993-27.769 32.405-18.061 77.214-49.881 106.653-98.9z"/><path d="m263.962 260.234h-15.92c-15.197 0-27.561 12.364-27.561 27.561s12.364 27.562 27.561 27.562h15.92c15.197 0 27.561-12.364 27.561-27.562s-12.363-27.561-27.561-27.561zm0 40.122h-15.92c-6.926 0-12.561-5.635-12.561-12.562s5.635-12.561 12.561-12.561h15.92c6.926 0 12.561 5.635 12.561 12.561s-5.634 12.562-12.561 12.562z"/><path d="m256.002 59.76c-4.273 0-8.337 2.055-10.871 5.497l-14.603 19.838c-3.524 4.787-3.524 11.219 0 16.005l14.604 19.839c2.534 3.441 6.598 5.496 10.871 5.496s8.337-2.055 10.871-5.496l14.604-19.839c3.523-4.786 3.523-11.217 0-16.004l-14.604-19.839c-2.535-3.442-6.599-5.497-10.872-5.497zm.001 50.643-12.739-17.306 12.739-17.306 12.739 17.306z"/><path d="m334.598 130.555h.03c4.128 0 7.483-3.338 7.5-7.471.016-4.142-3.329-7.513-7.471-7.529h-.124c-.01 0-.02 0-.03 0-4.128 0-7.483 3.338-7.5 7.471-.016 4.142 3.329 7.513 7.471 7.529z"/><path d="m303.593 124.556c4.142 0 7.5-3.358 7.5-7.5s-3.358-7.5-7.5-7.5h-.124c-4.142 0-7.5 3.358-7.5 7.5s3.358 7.5 7.5 7.5z"/><path d="m177.472 115.554h-.124c-4.142.017-7.487 3.387-7.471 7.529.016 4.132 3.371 7.471 7.5 7.471h.03.124c4.142-.017 7.487-3.387 7.471-7.529-.016-4.132-3.371-7.471-7.5-7.471-.01 0-.02 0-.03 0z"/><path d="m208.412 109.556c-4.142 0-7.5 3.358-7.5 7.5s3.358 7.5 7.5 7.5h.124c4.142 0 7.5-3.358 7.5-7.5s-3.358-7.5-7.5-7.5z"/><path d="m214.325 212.136h.104c4.142 0 7.5-3.358 7.5-7.5s-3.358-7.5-7.5-7.5h-.104c-4.142 0-7.5 3.358-7.5 7.5s3.358 7.5 7.5 7.5z"/><path d="m297.573 212.136h.104c4.142 0 7.5-3.358 7.5-7.5s-3.358-7.5-7.5-7.5h-.104c-4.142 0-7.5 3.358-7.5 7.5s3.358 7.5 7.5 7.5z"/><path d="m75.83 344.883c-4.142 0-7.5 3.358-7.5 7.5s3.358 7.5 7.5 7.5h11.114c4.142 0 7.5-3.358 7.5-7.5s-3.358-7.5-7.5-7.5z"/><path d="m79.444 385.089c0 4.142 3.358 7.5 7.5 7.5h11.114c4.142 0 7.5-3.358 7.5-7.5s-3.358-7.5-7.5-7.5h-11.114c-4.142 0-7.5 3.358-7.5 7.5z"/><path d="m113.058 425.295h11.114c4.142 0 7.5-3.358 7.5-7.5s-3.358-7.5-7.5-7.5h-11.114c-4.142 0-7.5 3.358-7.5 7.5s3.358 7.5 7.5 7.5z"/><path d="m164.081 451.403c4.142 0 7.5-3.358 7.5-7.5s-3.358-7.5-7.5-7.5h-11.114c-4.142 0-7.5 3.358-7.5 7.5s3.358 7.5 7.5 7.5z"/></g></g></svg>