<svg id="Capa_1" enable-background="new 0 0 512 512" height="512" viewBox="0 0 512 512" width="512" xmlns="http://www.w3.org/2000/svg"><g><path d="m387.901 138.078-13.451 30.007 33.463 2.335 7.556-10.062z" fill="#ffe07d"/><path d="m89.851 217.945 35.247 7.118-36.243 30.796-8.894-12.942z" fill="#ffe07d"/><circle cx="256" cy="241.886" fill="#e28086" r="167.845"/><path d="m196.278 91.441c5.482 0 9.874 1.424 12.693 4.243.196.195.385.398.567.607 0 .001.001.002.002.003 9.669 11.095.697 42.298-28.069 71.063-29.222 29.222-61.229 37.947-71.673 27.5-9.679-9.678-2.902-37.857 21.382-65.187-17.505 19.458-30.525 43.031-37.433 69.091 1.343 2.601 3.052 4.951 5.123 7.023 5.841 5.84 13.898 8.799 23.524 8.799 6.09 0 12.808-1.185 19.985-3.574 16.718-5.566 34.482-17.188 50.019-32.724 33.231-33.232 45.61-72.845 28.792-92.144-.413-.475-.845-.937-1.292-1.384-2.072-2.071-4.422-3.78-7.023-5.123-26.027 6.9-49.574 19.895-69.017 37.367 19.343-17.166 39.103-25.56 52.42-25.56z" fill="#dd636e"/><path d="m309.665 82.805c20.447 14.035 37.629 32.481 50.174 53.965 20.867 35.736 5.688 81.755-32.244 98.297-30.281 13.205-65.133 25.519-99.783 34.803-44.948 12.044-92.739 19.843-132.015 22.229 2.29 7.312 5.066 14.409 8.291 21.253 43.093 1.285 106.421-7.201 164.931-22.879 58.495-15.674 117.567-39.98 154.246-62.634-5.614-67.751-51.468-124.082-113.6-145.034z" fill="#dd636e"/><path d="m366.852 292.435c-26.777 57.127-84.797 96.692-152.059 96.692-18.767 0-36.814-3.08-53.664-8.762 26.988 18.525 59.664 29.366 94.871 29.366 84.569 0 154.53-62.546 166.149-143.903-16.992 9.311-35.65 18.295-55.297 26.607z" fill="#dd636e"/><circle cx="448.623" cy="350.797" fill="#ffe07d" r="12.877"/><circle cx="72.495" cy="106.19" fill="#ffe07d" r="12.877"/><path d="m237.369 223.249c-43.2 43.21-92.962 73.107-136.757 82.207-1.964-4.796-3.713-9.704-5.234-14.711 40.763-7.809 89.843-37.192 131.064-78.423 41.223-41.223 70.602-90.302 78.412-131.06 5.007 1.521 9.914 3.27 14.711 5.234-9.1 43.791-38.994 93.55-82.196 136.753zm186.472 19.668c-23.809 30.109-50.499 60.012-78.651 88.163-28.124 28.125-57.837 54.64-88.14 78.647 9.369-.057 18.556-.883 27.501-2.416 24.552-20.395 48.583-42.321 71.566-65.304 22.974-22.976 44.994-47.104 65.308-71.569 1.534-8.951 2.36-18.145 2.416-27.521zm-283.888 120.233c45.656-21.503 94.318-57.637 136.995-100.311 42.375-42.376 77.212-89.489 100.882-136.404-3.714-3.917-7.614-7.656-11.687-11.201-22.948 46.856-57.611 94.167-100.123 136.677-42.797 42.8-91.74 78.807-137.243 99.46 3.536 4.104 7.266 8.035 11.176 11.779zm273.947-178.313c-2.11-5.838-4.534-11.525-7.252-17.042-54.702 84.017-133.78 164.585-224.182 225.012 5.478 2.674 11.123 5.059 16.915 7.134 85.533-58.664 160.69-135.038 214.519-215.104z" fill="#dd636e"/><g fill="#da4a54"><path d="m214.753 389.127c-8.244-.002-16.349-.599-24.275-1.749-2.661 1.827-5.331 3.637-8.012 5.429 5.478 2.674 11.123 5.059 16.915 7.134 5.163-3.541 10.287-7.147 15.372-10.814z"/><path d="m154.399 285.467c-20.601 3.284-40.506 5.532-58.603 6.632.002.006.004.012.006.019 1.42 4.532 3.026 8.981 4.81 13.339 17.258-3.587 35.443-10.403 53.787-19.99z"/><path d="m309.787 82.846c-.041-.014-.081-.028-.122-.041 3.153 2.164 6.228 4.434 9.221 6.803.238-1.04.465-2.077.679-3.111-3.211-1.315-6.472-2.533-9.778-3.651z"/><path d="m391.905 281.22c-14.913 17.002-30.573 33.719-46.715 49.86-28.124 28.125-57.837 54.64-88.14 78.647 9.369-.057 18.556-.883 27.501-2.416 24.552-20.395 48.583-42.321 71.566-65.304 22.974-22.976 44.994-47.104 65.308-71.569.142-.831.278-1.663.408-2.498.003-.019.006-.038.009-.057.033-.213.065-.427.098-.64.022-.147.044-.293.066-.439.003-.023.007-.045.01-.068.045-.304.089-.607.132-.909-9.59 5.256-19.712 10.408-30.243 15.393z"/><path d="m276.949 262.839c4.07-4.07 8.07-8.184 11.997-12.337-10.745 3.928-21.767 7.672-32.903 11.159-15.79 15.074-32.288 29.175-49.039 41.898 10.852-1.785 21.666-3.793 32.198-6.009 12.929-10.914 25.581-22.546 37.747-34.711z"/><path d="m415.469 253.349c2.74-.767 5.452-1.535 8.129-2.305.145-2.693.227-5.402.243-8.128-2.753 3.482-5.544 6.96-8.372 10.433z"/><path d="m318.805 277.995c8.784-2.141 17.944-4.37 27.281-6.669 25.146-27.856 47.935-56.921 67.814-86.49-2.11-5.838-4.534-11.525-7.252-17.042-24.709 37.951-54.391 75.197-87.843 110.201z"/><path d="m366.144 115.234c-2.805 5.726-5.785 11.46-8.932 17.19.897 1.434 1.773 2.883 2.628 4.346 2.341 4.01 4.229 8.149 5.681 12.361 4.384-7.557 8.493-15.129 12.311-22.696-3.715-3.917-7.615-7.656-11.688-11.201z"/></g><circle cx="145.322" cy="430.232" fill="#ffe07d" r="7.726"/><circle cx="97.819" cy="396.333" fill="#ffe07d" r="7.726"/><circle cx="470.655" cy="290.415" fill="#ffe07d" r="7.726"/><circle cx="391.341" cy="83.699" fill="#ffe07d" r="7.726"/><circle cx="436.873" cy="106.19" fill="#ffe07d" r="7.726"/><circle cx="41.039" cy="168.085" fill="#ffe07d" r="7.726"/><path d="m511.21 173.503c-6.853-25.577-57.76-36.889-123.309-35.425 7.83 9.936 14.562 20.777 20.012 32.342 29.177.87 49.077 6.219 51.926 16.848 7.054 26.327-92.693 76.912-190.82 103.205-98.126 26.293-209.803 32.358-216.857 6.031-2.854-10.65 11.77-25.27 36.694-40.645-.463-4.129-.7-8.771-.7-13.973 0-8.129.579-16.122 1.695-23.941-57.492 31.504-95.914 66.75-89.061 92.325 11.797 44.027 154.125 45.787 276.982 12.868 122.856-32.919 245.235-105.608 233.438-149.635z" fill="#ffe07d"/><path d="m511.21 173.503c-3.732-13.927-20.525-23.624-45.631-29.332 2.095 2.699 3.588 5.608 4.424 8.729 2.631 9.82-1.413 21.065-10.648 32.977.194.453.356.917.483 1.391 6.036 22.528-66.127 62.817-148.56 90.45-24.105 9.561-49.4 18.033-74.715 24.816-83.993 22.506-177.087 28.802-231.349 16.465 27.456 35.372 158.411 34.724 272.557 4.139 122.857-32.92 245.236-105.608 233.439-149.635z" fill="#ffd064"/></g></svg>