<svg height="512" viewBox="0 0 58 58" width="512" xmlns="http://www.w3.org/2000/svg"><g id="Page-1" fill="none" fill-rule="evenodd"><g id="021---Planet" fill-rule="nonzero" transform="translate(-1 -1)"><circle id="Oval" cx="30" cy="30" fill="#955ba5" r="29"/><path id="Shape" d="m8.182 49.12c.74190984.8635247 1.9672085 1.1290061 3 .65 8.3231133-4.0993587 15.8931512-9.5765634 22.39-16.2 6.6234366-6.4968488 12.1006413-14.0668867 16.2-22.39.4790061-1.0327915.2135247-2.25809016-.65-3-1.8556466-1.62425132-3.9133407-3.00198542-6.122-4.099-11.1686496-5.60968899-24.6751245-3.43082508-33.51320683 5.40634897-8.83808231 8.83717403-11.0183343 22.34342503-5.40979317 33.51265103 1.09926142 2.2081555 2.47899816 4.2651565 4.105 6.12z" fill="#955ba5"/><g fill="#b49aca"><circle id="Oval" cx="9.487" cy="34.459" r="2.523"/><circle id="Oval" cx="50.513" cy="38.027" r="2.523"/><circle id="Oval" cx="24.649" cy="28.216" r="3.784"/><path id="Shape" d="m46.12 54.11v.01c-3.2628442 2.1847349-6.9382276 3.6787102-10.8 4.39-2.0014547-2.0317127-2.3904443-5.1537214-.9487283-7.6144392 1.4417161-2.4607177 4.3553403-3.6477498 7.1061988-2.895118 2.7508585.7526319 4.6543496 3.2576215 4.6425295 6.1095572z"/><path id="Shape" d="m16.046 4.586c-.024.3-.046.6-.046.914-.0081389 4.5031216 2.6127702 8.5966611 6.7059588 10.4738873 4.0931885 1.8772263 8.9054273 1.1926918 12.3127791-1.7514761 3.4073517-2.944168 4.7827951-7.60618316 3.5192621-11.9284112-7.4965466-2.33159502-15.6198534-1.50380651-22.492 2.292z"/></g><path id="Shape" d="m55.92 17 .01.01c-2.7 6.79-8.36 15.04-16.12 22.8s-16.01 13.42-22.8 16.12l-.01-.01c-5.71 2.26-10.38 2.42-12.86-.06s-2.323-7.153-.063-12.86c1.13964414 2.2711097 2.57292511 4.3825346 4.263 6.28.00785834.0178689.02213115.0321417.04.04.75197127.7115597 1.8629393.8901081 2.8.45 8.3224479-4.1004637 15.8923097-9.577541 22.39-16.2 6.622459-6.4976903 12.0995363-14.0675521 16.2-22.39.4401081-.9370607.2615597-2.04802873-.45-2.8-.0078583-.01786885-.0221311-.03214166-.04-.04-1.8848682-1.70508229-3.9986143-3.13859253-6.28-4.259 5.71-2.26 10.378-2.421 12.858.059s2.322 7.15.062 12.86z" fill="#ff5364"/><path id="Shape" d="m27 13c-.5522847 0-1-.4477153-1-1s.4477153-1 1-1c2.7600532-.0033061 4.9966939-2.23994685 5-5 0-.55228475.4477153-1 1-1s1 .44771525 1 1c-.0044086 3.86416566-3.1358343 6.9955914-7 7z" fill="#955ba5"/></g></g></svg>