<svg id="Capa_1" enable-background="new 0 0 496.973 496.973" height="512" viewBox="0 0 496.973 496.973" width="512" xmlns="http://www.w3.org/2000/svg"><g><g id="XMLID_262_"><g><path d="m268.056 7.16c-5.72-4.77-12.73-7.16-19.75-7.16-6.92 0-13.85 2.33-19.53 6.98l-.18.15c-13.6 11.14-23.84 25.51-29.98 41.54l17.898 23.29h70.053l10.989-23.29c-6.01-15.97-16.09-30.32-29.5-41.51z" fill="#f79595"/></g></g><path d="m241.512 60.93c6.14-16.03 16.38-30.4 29.98-41.54l.18-.15c1.701-1.393 3.538-2.548 5.43-3.525-2.816-3.016-5.839-5.88-9.046-8.556-5.72-4.77-12.73-7.16-19.75-7.16-6.92 0-13.85 2.33-19.53 6.98l-.18.15c-13.6 11.14-23.84 25.51-29.98 41.54l17.898 23.29h21.513c.959-3.744 2.107-7.431 3.485-11.029z" fill="#f37c7c"/><path d="m303.986 83.94v178.44h-112v-177.9c0-12.4 2.3-24.51 6.63-35.81h98.94c4.21 11.15 6.43 23.08 6.43 35.27z" fill="#c5d3dd"/><g id="XMLID_259_"><g><path d="m355.456 158.65-1.21-1.28c-3.82-4.03-10.24-4.03-14.06 0l-1.21 1.28c-10.01 10.56-17.23 23.29-21.21 37.03l9.663 16.044h43.594l5.643-16.044c-3.98-13.74-11.2-26.47-21.21-37.03z" fill="#f79595"/></g></g><path d="m354.253 195.68c2.497-8.62 6.27-16.842 11.207-24.381-2.932-4.478-6.273-8.714-10.003-12.649l-1.21-1.28c-3.82-4.03-10.24-4.03-14.06 0l-1.21 1.28c-10.01 10.56-17.23 23.29-21.21 37.03l9.663 16.044h23.729c.55-5.453 1.586-10.824 3.094-16.044z" fill="#f37c7c"/><path d="m380.226 220.81v117.72h-66.02v-117.72c0-8.57 1.22-17.03 3.56-25.13h58.9c2.34 8.1 3.56 16.56 3.56 25.13z" fill="#e8edf2"/><g id="XMLID_255_"><g><path d="m157.996 158.65-1.21-1.28c-3.82-4.03-10.24-4.03-14.06 0l-1.21 1.28c-10.01 10.56-17.23 23.29-21.21 37.03l9.311 16.188s43.705 1.132 43.705 0 5.884-16.188 5.884-16.188c-3.98-13.74-11.2-26.47-21.21-37.03z" fill="#f79595"/></g></g><path d="m156.793 195.68c2.497-8.62 6.271-16.842 11.207-24.381-2.932-4.478-6.273-8.714-10.003-12.649l-1.21-1.28c-3.82-4.03-10.24-4.03-14.06 0l-1.21 1.28c-10.01 10.56-17.23 23.29-21.21 37.03l9.311 16.188s12.427.322 24.028.451c.533-5.657 1.584-11.229 3.147-16.639z" fill="#f37c7c"/><path d="m182.766 220.81v130.96h-66.02v-130.96c0-8.57 1.22-17.03 3.56-25.13h58.9c2.34 8.1 3.56 16.56 3.56 25.13z" fill="#e8edf2"/><path d="m403.368 491.36-13.314-65.68-3.933-17.447h-22.911l-3.645 17.447-13.314 65.68c-.588 2.901 1.629 5.612 4.589 5.612h47.94c2.959.001 5.176-2.711 4.588-5.612z" fill="#fee97d"/><path d="m150.454 490.036-13.046-64.356-2.914-14.668h-25.499l-2.077 14.668-13.046 64.356c-.727 3.585 2.013 6.936 5.671 6.936h45.239c3.658.001 6.398-3.351 5.672-6.936z" fill="#fee97d"/><path d="m349.9 425.691h49.82c3.26 0 5.903-2.643 5.903-5.903v-35.953h-61.627v35.953c0 3.26 2.643 5.903 5.904 5.903z" fill="#f79595"/><path d="m147.073 425.68h-49.82c-3.26 0-5.903-2.643-5.903-5.903v-38.953h61.627v38.953c0 3.26-2.644 5.903-5.904 5.903z" fill="#f79595"/><path d="m266.513 492.555v-44.16h-37.053v44.16c0 2.44 1.978 4.418 4.418 4.418h28.218c2.439 0 4.417-1.978 4.417-4.418z" fill="#fee97d"/><path d="m291.143 419.364 10.045 21.339c.448.952.681 1.992.681 3.044v13.675c0 3.851-3.122 6.973-6.973 6.973h-92.82c-3.851 0-6.973-3.122-6.973-6.973v-13.675c0-1.053.232-2.092.681-3.044l10.045-21.339 9.684-21.167h64.946z" fill="#f79595"/><g><path d="m182.655 216.59-20.139 21.338c-3.338 3.537-9.284 1.175-9.284-3.689v-13.429c0-8.57 1.22-17.03 3.56-25.13h-36.486c-2.34 8.1-3.56 16.56-3.56 25.13v130.96h36.486v-51.752h29.534s-.045-82.024-.111-83.428z" fill="#d9e7ec"/><path d="m356.837 260.721c-3.948-4.23-6.144-9.8-6.144-15.587v-24.324c0-8.57 1.22-17.03 3.56-25.13h-36.486c-2.34 8.1-3.56 16.56-3.56 25.13v117.72h27.407 9.08 29.534v-52.75z" fill="#d9e7ec"/><path d="m275.606 195.68h-52.59l-149.97 158.9 25.357 20.12h310.556l14.967-20.12z" fill="#b6c4cf"/><g><g fill="#f37c7c"><path d="m91.35 380.823v38.953c0 3.26 2.643 5.903 5.903 5.903h28.681c-3.26 0-5.903-2.643-5.903-5.903 0-5.499 4.458-9.957 9.957-9.957h22.989v-28.996h-32.946z"/><path d="m405.623 409.82v-25.986h-32.946-28.681v35.953c0 3.26 2.643 5.903 5.903 5.903h28.681c-3.26 0-5.903-2.643-5.903-5.903v-.01c0-5.499 4.458-9.957 9.957-9.957z"/></g><path d="m425.556 358.72v30.03c0 3.35-2.72 6.07-6.07 6.07h-342c-3.35 0-6.07-2.72-6.07-6.07v-30.03c0-1.54.58-3.02 1.63-4.14h350.88c1.05 1.12 1.63 2.6 1.63 4.14z" fill="#d9e7ec"/></g><path d="m303.986 104.398c-3.195-3.937-6.614-7.707-10.261-11.271l-17.659-17.259c-7.415-7.249-17.21-11.241-27.581-11.241-1.351 0-2.692.07-4.018.208-2.108.218-3.731-1.879-2.973-3.859.006-.015.012-.031.018-.046 1.613-4.212 3.517-8.306 5.684-12.26h-48.58c-4.33 11.3-6.63 23.41-6.63 35.81v177.9h42.896v-94.791h69.104z" fill="#b6c4cf"/><g id="XMLID_254_"><g><path d="m300.556 439.36-9.413-19.996-10.684-21.167h-35.27-12.926-16.75l-9.684 21.167-10.045 21.339c-.448.952-.681 1.992-.681 3.044v13.675c0 3.851 3.122 6.973 6.973 6.973h29.676c-3.851 0-6.973-3.122-6.973-6.973v-5.344c0-2.814 2.858-4.816 5.451-3.722 2.038.86 4.277 1.336 6.624 1.336h23.264c6.266 0 11.751-3.391 14.727-8.432.705-1.194 2.012-1.9 3.398-1.9z" fill="#f37c7c"/><path d="m223.016 195.68-60.25 63.838v115.182h171.441v-116.24l-58.601-62.78z" fill="#9facba"/><path d="m162.766 354.58h171.44v40.24h-171.44z" fill="#c5d3dd"/></g></g><path d="m279.746 107.43-17.66-17.26c-1.951-1.907-4.206-3.312-6.604-4.235l-1.115 2.918h-11.909l-1.968-2.488c-2.022.912-3.928 2.166-5.605 3.804l-17.66 17.26c-22.04 21.54-34.46 51.04-34.46 81.85v218.67c0 6.31 5.11 11.41 11.41 11.41h108.62c6.3 0 11.41-5.1 11.41-11.41v-218.669c.001-30.81-12.419-60.31-34.459-81.85z" fill="#e8edf2"/><path d="m247.986 243.667c26.46 0 47.986-21.526 47.986-47.986 0-20.085-12.406-37.32-29.957-44.459-7.871-3.202-11.126-12.69-6.814-20.012 5.086-8.638 11.329-16.645 18.628-23.779l.958-.937-16.701-16.324c-1.951-1.907-4.206-3.312-6.604-4.235l-1.115 2.918h-11.909l-1.968-2.488c-2.022.912-3.928 2.166-5.605 3.804l-17.66 17.26c-22.04 21.54-34.46 51.04-34.46 81.85v218.67c0 6.31 5.11 11.41 11.41 11.41h60.603c-6.3 0-11.41-5.1-11.41-11.41v-159.668c.002-2.55 2.069-4.616 4.618-4.614z" fill="#d9e7ec"/><path d="m247.986 391.973c4.142 0 7.5-3.358 7.5-7.5v-298.537c-4.835-1.862-10.254-1.71-15 .432v298.105c0 4.142 3.358 7.5 7.5 7.5z" fill="#c5d3dd"/><path d="m240.473 86.343.013 123.703h15v-124.121c-4.835-1.862-10.266-1.724-15.013.418z" fill="#c5d3dd"/><circle cx="247.986" cy="195.68" fill="#a7eedc" r="33.986"/><path d="m240.486 195.68c0-14.072 8.553-26.146 20.743-31.309-4.07-1.724-8.545-2.677-13.243-2.677-18.77 0-33.986 15.216-33.986 33.986s15.216 33.986 33.986 33.986c4.698 0 9.173-.954 13.243-2.677-12.19-5.163-20.743-17.237-20.743-31.309z" fill="#86e8d0"/><path d="m257.016 329.662-6.088-2.326-7.558 11.194-4 90.699 5.188 3.219 3.605-2.659 3.016 5.608s2.037 1.164 2.116 1.164c.01 0 .014.048.014.131h6.81c2.262 0 4.096-1.834 4.096-4.096v-81.465c-.001-7.749-2.528-15.286-7.199-21.469z" fill="#b6c4cf"/><path d="m250.785 432.596v-81.465c0-7.473 2.366-14.746 6.724-20.8-.161-.223-.327-.449-.493-.669l-6.118-8.097c-1.209-1.601-3.614-1.601-4.823 0l-6.118 8.097c-4.671 6.183-7.198 13.72-7.198 21.469v81.465c0 2.262 1.834 4.096 4.096 4.096h18.027c-2.263 0-4.097-1.834-4.097-4.096z" fill="#9facba"/><g><path d="m215.513 268.42c-4.142 0-7.5-3.358-7.5-7.5v-4.038c0-4.142 3.358-7.5 7.5-7.5s7.5 3.358 7.5 7.5v4.038c0 4.143-3.358 7.5-7.5 7.5z" fill="#b6c4cf"/></g><g><path d="m215.513 309.537c-4.142 0-7.5-3.358-7.5-7.5v-4.038c0-4.142 3.358-7.5 7.5-7.5s7.5 3.358 7.5 7.5v4.038c0 4.142-3.358 7.5-7.5 7.5z" fill="#b6c4cf"/></g><g><path d="m280.459 268.42c-4.142 0-7.5-3.358-7.5-7.5v-4.038c0-4.142 3.358-7.5 7.5-7.5s7.5 3.358 7.5 7.5v4.038c0 4.143-3.357 7.5-7.5 7.5z" fill="#c5d3dd"/></g><g><path d="m280.459 309.537c-4.142 0-7.5-3.358-7.5-7.5v-4.038c0-4.142 3.358-7.5 7.5-7.5s7.5 3.358 7.5 7.5v4.038c0 4.142-3.357 7.5-7.5 7.5z" fill="#c5d3dd"/></g><g id="XMLID_257_"><g fill="#c5d3dd"><path d="m353.336 278.96 70.59 75.62h-70.6v-75.61z"/><path d="m143.646 279.78v74.8h-70.6z"/></g></g></g></g></svg>
