<svg id="Layer_1" enable-background="new 0 0 512 512" height="512" viewBox="0 0 512 512" width="512" xmlns="http://www.w3.org/2000/svg"><g><path d="m160.908 309.34s-39.281 29.905-56.303 63.88-8.293 62.287 2.182 62.287c10.038 0 16.615-22.214 73.117-43.47z" fill="#f75632"/><path d="m351.092 309.34s39.281 29.905 56.303 63.88 8.293 62.287-2.182 62.287c-10.038 0-16.615-22.214-73.117-43.47z" fill="#f75632"/><path d="m407.395 373.22c-17.022-33.975-56.303-63.88-56.303-63.88l-5.123 22.302c11.207 11.363 23.643 26.044 31.426 41.579 9.692 19.345 11.029 36.845 8.456 48.337 10.124 8.312 14.305 13.95 19.362 13.95 10.474-.001 19.204-28.314 2.182-62.288z" fill="#e33629"/><path d="m370.532 233.59c0 68.41-31.74 185.36-31.74 185.36h-167.7s-31.74-116.95-31.74-185.36c0-161.25 92.279-226.09 115.59-226.09s115.59 64.84 115.59 226.09z" fill="#a9dbf5"/><path d="m254.942 7.5c-3.572 0-8.769 1.531-15 4.689 34.431 17.455 100.59 84.86 100.59 221.401 0 68.41-31.74 185.36-31.74 185.36h30s31.74-116.95 31.74-185.36c0-161.25-92.279-226.09-115.59-226.09z" fill="#88c3e0"/><circle cx="254.942" cy="212" fill="#ffd54f" r="77"/><circle cx="254.942" cy="212" fill="#43809f" r="47"/><path d="m165.522 100.178c44.2.587 120.283 1.48 179.526 1.566-29.105-65.865-74.688-94.244-90.106-94.244-15.297 0-60.29 27.92-89.42 92.678z" fill="#f75632"/><path d="m254.942 7.5c-3.569 0-8.768 1.542-14.991 4.694 20.65 10.472 52.7 38.917 75.055 89.449 10.318.052 20.405.087 30.041.101-29.104-65.865-74.687-94.244-90.105-94.244z" fill="#e33629"/><path d="m311.445 468.947h-113.006c-5.797 0-10.497-4.7-10.497-10.497v-39.503h134v39.503c0 5.797-4.7 10.497-10.497 10.497z" fill="#ffd54f"/><path d="m291.942 418.947v50h19.503c5.797 0 10.497-4.7 10.497-10.497v-39.503z" fill="#ffc328"/><g fill="#f75632"><circle cx="145.186" cy="489.5" r="15"/><circle cx="364.697" cy="489.5" r="15"/><path d="m254.942 444.937c-8.284 0-15-6.716-15-15v-73.326c0-14.791 6.759-43.674 15-43.674s15 27.015 15 43.674v73.326c0 8.285-6.716 15-15 15z"/></g><g><path d="m414.054 369.86c-11.27-22.498-31.661-43.097-44.671-54.85 5.722-32.979 8.615-60.27 8.615-81.42 0-89.467-27.888-146.755-51.283-179.06-2.429-3.354-7.116-4.104-10.471-1.674-3.354 2.43-4.103 7.119-1.673 10.474 6.102 8.426 12.526 18.677 18.631 30.887-52.914-.162-116.288-.879-155.814-1.385 5.646-11.112 11.528-20.547 17.134-28.395 24.955-34.936 51.664-49.437 60.418-49.437 5.513 0 21.165 6.79 39.692 25.008 2.953 2.904 7.7 2.864 10.603-.09s2.863-7.702-.09-10.606c-18.107-17.807-37.814-29.312-50.205-29.312-15.911 0-46.769 19.527-72.62 55.716-23.01 32.212-50.438 89.22-50.438 177.874 0 24.307 3.852 54.293 8.883 83.1-14.355 13.177-32.37 32.304-42.819 53.169-13.79 27.515-12.34 52.182-4.785 64.424 3.473 5.627 8.327 8.727 13.667 8.727 6.449 0 11.029-4.116 16.827-9.326 6.964-6.258 17.092-15.352 36.98-25.184 1.14 4.485 2.038 7.91 2.603 10.041l-18.553 48.473c-12.159.282-21.966 10.257-21.966 22.487 0 12.407 10.091 22.5 22.494 22.5 12.404 0 22.494-10.093 22.494-22.5 0-7.236-3.436-13.681-8.758-17.8l17.319-45.25h4.189v32c0 9.925 8.073 18 17.995 18h57.548c4.141 0 7.498-3.358 7.498-7.5s-3.357-7.5-7.498-7.5h-57.545c-1.654 0-2.999-1.346-2.999-3v-32h36.992v3.487c0 12.407 10.091 22.5 22.494 22.5s22.494-10.093 22.494-22.5v-3.487h36.989v32c0 1.654-1.345 3-2.999 3h-23.192c-4.141 0-7.498 3.358-7.498 7.5s3.357 7.5 7.498 7.5h23.192c9.923 0 17.995-8.075 17.995-18v-32h4.179l17.323 45.258c-5.316 4.119-8.748 10.56-8.748 17.792 0 12.407 10.091 22.5 22.494 22.5s22.494-10.093 22.494-22.5c0-12.234-9.814-22.211-21.979-22.487l-18.549-48.462c.591-2.239 1.571-5.995 2.828-10.978 21.14 10.174 31.666 19.625 38.886 26.113 5.797 5.209 10.376 9.324 16.823 9.324 5.34 0 10.194-3.1 13.667-8.727 7.554-12.243 9.005-36.91-4.785-64.424zm-300.42 52.665c-2.36 2.121-5.247 4.714-6.588 5.364-3.517-2.873-9.697-23.369 4.307-51.311 8.032-16.038 21.607-31.359 32.654-42.265 4.374 22.683 9.158 43.66 12.942 59.307-23.723 11.307-35.855 22.202-43.315 28.905zm31.581 74.475c-4.134 0-7.498-3.364-7.498-7.5s3.363-7.5 7.498-7.5c.772 0 1.517.118 2.218.335.009.003.019.006.028.009 3.04.957 5.252 3.802 5.252 7.155 0 4.137-3.363 7.501-7.498 7.501zm109.727-59.562c-4.135 0-7.498-3.364-7.498-7.5v-73.326c0-12.247 4.259-28.049 7.596-34.278 3.336 6.042 7.4 21.373 7.4 34.278v62.309c0 .01-.001.019-.001.029s.001.019.001.029v10.958c0 4.136-3.364 7.501-7.498 7.501zm22.494-25.988v-54.838c0-9.183-1.816-20.79-4.74-30.291-4.324-14.052-10.132-20.883-17.754-20.883-18.346 0-22.494 43.221-22.494 51.174v54.838h-55.556c-6.197-23.911-30.013-119.618-30.013-177.86 0-53.66 10.408-95.003 23.56-125.846 40.389.528 112.301 1.367 169.644 1.491 12.879 30.74 22.92 71.606 22.92 124.355 0 58.243-23.817 153.95-30.013 177.86zm94.73 78.05c0 4.136-3.363 7.5-7.498 7.5s-7.498-3.364-7.498-7.5 3.363-7.5 7.498-7.5 7.498 3.364 7.498 7.5zm32.788-61.61c-1.341-.651-4.225-3.243-6.584-5.362-7.703-6.923-20.245-18.187-45.249-29.814 2.645-10.998 5.756-24.502 8.852-39.248 1.509-7.187 2.908-14.158 4.205-20.926 11.612 11.231 26.033 27.2 34.47 44.042 14.003 27.939 7.823 48.435 4.306 51.308z"/><path d="m254.942 127.5c-46.581 0-84.478 37.907-84.478 84.5 0 19.801 6.988 39.055 19.677 54.214 2.659 3.177 7.388 3.597 10.562.936 3.175-2.659 3.594-7.389.936-10.565-10.433-12.465-16.179-28.298-16.179-44.585 0-38.322 31.169-69.5 69.482-69.5 38.312 0 69.481 31.178 69.481 69.5s-31.169 69.5-69.481 69.5c-10.751 0-21.053-2.387-30.621-7.094-3.713-1.828-8.21-.298-10.038 3.42-1.828 3.717-.297 8.212 3.419 10.04 11.645 5.729 24.174 8.634 37.239 8.634 46.581 0 84.478-37.907 84.478-84.5s-37.896-84.5-84.477-84.5z"/><path d="m254.942 266.5c30.044 0 54.486-24.449 54.486-54.5s-24.442-54.5-54.486-54.5-54.486 24.449-54.486 54.5 24.442 54.5 54.486 54.5zm0-94c21.775 0 39.49 17.72 39.49 39.5s-17.715 39.5-39.49 39.5-39.49-17.72-39.49-39.5 17.715-39.5 39.49-39.5z"/></g></g></svg>