<svg height="512" viewBox="0 0 128 128" width="512" xmlns="http://www.w3.org/2000/svg"><g><path d="m70.125 81.375h18.813v-50.019a20 20 0 0 0 -7.482-15.6l-17.456-14.009-17.456 14.011a20 20 0 0 0 -7.481 15.6v50.017h18.812l6.125-5.875z" fill="#e4e4e3"/><path d="m75.406 105.505a5 5 0 0 0 5-5v-5.138h-32.812v5.138a5 5 0 0 0 5 5z" fill="#4e4e4f"/><path d="m73.078 117.431a8.371 8.371 0 0 0 1.922-9.158l-1.125-2.768h-19.75l-1.125 2.768a8.371 8.371 0 0 0 1.922 9.158l9.078 8.816z" fill="#ffe65a"/><path d="m117.125 91.383v-32l-28.187-20.016v42.008h9.312l4.781 10.008z" fill="#4e4e4f"/><path d="m109.125 83.383v-19.869l-12.187-8.654v18.515h6.356l4.781 10.008z" fill="#333"/><path d="m39.063 81.375v-42.008l-28.188 20.016v32h14.094l4.781-10.008z" fill="#4e4e4f"/><path d="m31.063 73.375v-18.515l-12.188 8.654v19.869h1.05l4.781-10.008z" fill="#333"/><path d="m80.938 31.356a11.947 11.947 0 0 0 -4.489-9.356l-12.449-9.995-12.449 9.995a11.946 11.946 0 0 0 -4.488 9.359v3.395a48.033 48.033 0 0 1 16.937-3.289 48.044 48.044 0 0 1 16.938 3.286z" fill="#269ef7"/><path d="m82.938 95.367a6 6 0 0 0 6-6v-7.992h-18.813l-6.125-5.875-6.125 5.875h-18.812v7.992a6 6 0 0 0 6 6z" fill="#b3b1b3"/></g></svg>